<svg id="visual" viewBox="0 0 900 300" width="900" height="300" xmlns="http://www.w3.org/2000/svg" xmlns:xlink="http://www.w3.org/1999/xlink" version="1.1"><rect x="0" y="0" width="900" height="300" fill="#002233"></rect><path d="M81 0L85 6.3C89 12.7 97 25.3 101.5 37.8C106 50.3 107 62.7 101.3 75.2C95.7 87.7 83.3 100.3 78 112.8C72.7 125.3 74.3 137.7 76.5 150.2C78.7 162.7 81.3 175.3 80.8 187.8C80.3 200.3 76.7 212.7 74.8 225.2C73 237.7 73 250.3 76.7 262.8C80.3 275.3 87.7 287.7 91.3 293.8L95 300L0 300L0 293.8C0 287.7 0 275.3 0 262.8C0 250.3 0 237.7 0 225.2C0 212.7 0 200.3 0 187.8C0 175.3 0 162.7 0 150.2C0 137.7 0 125.3 0 112.8C0 100.3 0 87.7 0 75.2C0 62.7 0 50.3 0 37.8C0 25.3 0 12.7 0 6.3L0 0Z" fill="#0066FF" stroke-linecap="round" stroke-linejoin="miter"></path></svg>